<?xml version="1.0" encoding="UTF-8" standalone="no"?>
<!DOCTYPE svg PUBLIC "-//W3C//DTD SVG 1.1//EN" "http://www.w3.org/Graphics/SVG/1.1/DTD/svg11.dtd">
<svg width="100%" height="100%" viewBox="0 0 700 700" version="1.1" xmlns="http://www.w3.org/2000/svg" xmlns:xlink="http://www.w3.org/1999/xlink" xml:space="preserve" xmlns:serif="http://www.serif.com/" style="fill-rule:evenodd;clip-rule:evenodd;stroke-linejoin:round;stroke-miterlimit:2;">
    <g transform="matrix(0.957896,0,0,0.957896,14.7374,81.7863)">
        <path d="M588.52,176.3L587.887,176.3C588.286,172.859 588.497,169.394 588.52,165.929C588.52,135.343 573.536,106.699 548.411,89.257C523.282,71.816 491.204,67.792 462.552,78.491C457.696,55.264 441.802,35.874 419.974,26.565C398.15,17.256 373.154,19.198 353.029,31.772C352.822,31.506 352.58,31.28 352.369,31.018C351.209,29.577 349.963,28.213 348.709,26.854C347.955,26.03 347.244,25.163 346.455,24.373C344.513,22.428 342.478,20.584 340.345,18.842C339.443,18.1 338.478,17.444 337.545,16.745C336.127,15.674 334.709,14.616 333.224,13.639C332.263,13.01 331.271,12.44 330.291,11.854C328.709,10.905 327.115,9.994 325.47,9.151C324.525,8.67 323.572,8.217 322.607,7.772C320.834,6.944 319.025,6.182 317.185,5.487C316.271,5.135 315.361,4.791 314.431,4.475C312.474,3.807 310.474,3.237 308.451,2.713C307.572,2.487 306.709,2.237 305.822,2.038C303.662,1.557 301.462,1.198 299.244,0.889C298.455,0.78 297.681,0.616 296.884,0.53C293.861,0.186 290.822,0.01 287.779,0.002C285.06,0.002 282.377,0.155 279.724,0.413C278.849,0.495 277.998,0.655 277.13,0.764C275.365,0.995 273.603,1.233 271.876,1.569C270.873,1.764 269.896,2.018 268.908,2.252C267.349,2.616 265.794,2.995 264.267,3.448C263.251,3.748 262.259,4.088 261.263,4.424C259.802,4.92 258.357,5.44 256.935,6.014C255.951,6.409 254.978,6.827 254.013,7.26C252.619,7.881 251.251,8.541 249.904,9.241C248.974,9.717 248.052,10.202 247.142,10.713C245.79,11.475 244.478,12.291 243.177,13.127C242.341,13.663 241.494,14.182 240.677,14.749C239.322,15.69 238.017,16.694 236.72,17.713C236.025,18.256 235.31,18.772 234.63,19.338C233.095,20.624 231.63,21.983 230.193,23.374C229.814,23.741 229.408,24.073 229.037,24.448C227.244,26.245 225.537,28.124 223.916,30.081C223.545,30.53 223.216,31.014 222.853,31.467C221.642,32.991 220.459,34.538 219.357,36.143C218.845,36.885 218.388,37.663 217.904,38.424C217.021,39.803 216.154,41.186 215.353,42.616C214.861,43.495 214.412,44.401 213.955,45.299C213.248,46.674 212.564,48.061 211.935,49.483C211.509,50.444 211.115,51.416 210.724,52.397C210.162,53.815 209.635,55.249 209.146,56.702C208.806,57.721 208.478,58.745 208.177,59.78C207.748,61.256 207.373,62.752 207.021,64.26C206.779,65.311 206.529,66.354 206.33,67.416C206.24,67.873 206.111,68.315 206.033,68.772C202.99,67.499 199.877,66.413 196.705,65.522C195.928,65.295 195.142,65.12 194.357,64.92C191.775,64.256 189.162,63.721 186.513,63.311C185.638,63.174 184.771,63.022 183.892,62.913C158.509,59.604 133.029,68.268 114.923,86.362C96.818,104.452 88.134,129.928 91.423,155.311C91.544,156.287 91.716,157.248 91.869,158.221C92.263,160.693 92.763,163.131 93.369,165.525C93.607,166.471 93.826,167.412 94.095,168.346C95.001,171.51 96.095,174.615 97.369,177.65L97.372,177.662C63.411,184.455 38.942,214.252 38.892,248.892C38.889,267.857 46.334,286.068 59.63,299.599L59.63,477.039C59.63,499.949 78.204,518.523 101.11,518.523C124.02,518.523 142.594,499.949 142.594,477.039L142.594,425.187C142.594,413.734 151.88,404.449 163.332,404.449C174.789,404.449 184.074,413.734 184.074,425.187L184.074,435.558C184.074,458.468 202.644,477.038 225.554,477.038C248.464,477.038 267.034,458.468 267.034,435.558C267.034,424.105 276.324,414.82 287.776,414.82C299.233,414.82 308.518,424.105 308.518,435.558L308.518,518.523C308.518,541.433 327.088,560.003 349.998,560.003C372.908,560.003 391.478,541.433 391.478,518.523L391.478,435.558C391.478,424.105 400.764,414.82 412.22,414.82C423.673,414.82 432.962,424.105 432.962,435.558L432.962,494.359C432.962,517.269 451.532,535.839 474.442,535.839C497.352,535.839 515.922,517.269 515.922,494.359L515.922,394.079C515.922,382.626 525.208,373.337 536.664,373.337C548.117,373.337 557.402,382.626 557.402,394.079L557.402,435.559C557.402,458.469 575.976,477.039 598.886,477.039C621.792,477.039 640.366,458.469 640.366,435.559L640.366,299.599C653.718,286.107 661.175,267.872 661.104,248.892C661.062,208.818 628.584,176.341 588.514,176.298L588.52,176.3ZM598.891,456.3C587.438,456.288 578.161,447.007 578.149,435.558L578.149,394.078C578.149,371.168 559.579,352.598 536.669,352.598C513.759,352.598 495.185,371.168 495.185,394.078L495.185,494.358C495.185,505.811 485.9,515.096 474.447,515.096C462.99,515.096 453.705,505.811 453.705,494.358L453.705,435.557C453.705,412.647 435.135,394.077 412.225,394.077C389.315,394.077 370.745,412.647 370.745,435.557L370.745,518.522C370.745,529.975 361.456,539.26 350.003,539.26C338.55,539.26 329.261,529.975 329.261,518.522L329.261,435.557C329.261,412.647 310.691,394.077 287.781,394.077C264.871,394.077 246.301,412.647 246.301,435.557C246.301,447.014 237.016,456.299 225.559,456.299C214.106,456.299 204.821,447.014 204.821,435.557L204.821,425.186C204.821,402.28 186.247,383.706 163.337,383.706C140.427,383.706 121.857,402.28 121.857,425.186L121.857,477.038C121.857,488.495 112.572,497.78 101.115,497.78C89.662,497.78 80.377,488.495 80.377,477.038L80.377,314.378C90.084,319.042 100.717,321.468 111.486,321.48L588.526,321.48C599.292,321.48 609.921,319.077 619.635,314.444L619.635,435.554C619.623,447.003 610.346,456.284 598.897,456.296L598.891,456.3ZM625.125,285.56C615.457,295.337 602.266,300.806 588.52,300.744L572.543,300.744C582.82,289.369 588.512,274.588 588.52,259.26C588.52,253.533 583.876,248.893 578.149,248.893C572.422,248.893 567.778,253.534 567.778,259.26C567.751,282.158 549.196,300.717 526.298,300.744L411.078,300.744C425.074,287.123 432.965,268.42 432.965,248.892C432.965,243.162 428.321,238.521 422.594,238.521C416.864,238.521 412.223,243.162 412.223,248.892C412.188,277.513 388.993,300.708 360.371,300.744L267.035,300.744C244.137,300.717 225.582,282.158 225.555,259.26C225.555,253.533 220.914,248.893 215.184,248.893C209.457,248.893 204.817,253.534 204.817,259.26C204.821,274.588 210.512,289.369 220.79,300.744L111.48,300.744C82.859,300.709 59.664,277.514 59.628,248.892C59.608,221.158 81.499,198.365 109.21,197.259C124.925,216.786 148.636,228.146 173.702,228.15C179.429,228.15 184.073,223.506 184.073,217.779C184.073,212.052 179.429,207.408 173.702,207.408C151.585,207.385 131.143,195.611 120.018,176.498C118.76,174.381 117.631,172.189 116.643,169.936C116.577,169.783 116.491,169.639 116.428,169.486C115.479,167.228 114.666,164.92 113.998,162.564C113.784,161.83 113.612,161.084 113.424,160.338C112.979,158.576 112.616,156.791 112.33,154.986C112.209,154.244 112.08,153.506 111.987,152.756C109.549,133.498 116.272,114.209 130.151,100.635C144.03,87.065 163.463,80.776 182.663,83.647C183.749,83.803 184.799,84.092 185.87,84.303C187.733,84.674 189.592,85.057 191.405,85.596C192.518,85.924 193.596,86.354 194.69,86.748C196.483,87.393 198.264,88.072 199.995,88.889C200.878,89.303 201.737,89.772 202.6,90.225C203.542,90.729 204.44,91.322 205.358,91.873C207.928,115.728 220.69,137.307 240.354,151.053C243.393,153.182 247.338,153.526 250.702,151.952C254.061,150.381 256.327,147.131 256.643,143.436C256.956,139.737 255.272,136.155 252.225,134.038C228.6,117.792 219.163,87.483 229.393,60.698C239.623,33.909 266.858,17.608 295.299,21.245C295.964,21.327 296.616,21.444 297.272,21.545C299.163,21.838 301.034,22.213 302.878,22.674C303.499,22.83 304.124,22.979 304.737,23.155C306.968,23.78 309.163,24.526 311.311,25.397C311.44,25.452 311.573,25.487 311.698,25.541C313.94,26.487 316.124,27.565 318.237,28.764C318.858,29.116 319.456,29.506 320.065,29.877C321.514,30.76 322.921,31.698 324.292,32.69C324.991,33.202 325.69,33.709 326.37,34.249C327.847,35.42 329.268,36.667 330.636,37.971C331.038,38.354 331.468,38.71 331.858,39.104C333.495,40.76 335.034,42.506 336.468,44.338C336.858,44.831 337.218,45.342 337.597,45.842C338.936,47.631 340.175,49.487 341.311,51.413C346.991,60.956 349.995,71.858 349.999,82.968C349.999,88.694 354.643,93.335 360.37,93.335C366.096,93.335 370.741,88.694 370.741,82.968C370.737,71.507 368.346,60.171 363.717,49.687C371.995,44.351 381.631,41.503 391.479,41.484C405.358,41.55 418.635,47.148 428.37,57.039C438.101,66.925 443.487,80.293 443.331,94.168C443.331,97.89 445.328,101.324 448.558,103.171C451.792,105.015 455.765,104.988 458.968,103.101C469.952,96.671 482.456,93.3 495.183,93.336C535.257,93.382 567.734,125.856 567.777,165.93C567.777,170.504 567.347,175.07 566.504,179.567C566.488,179.637 566.515,179.703 566.504,179.774C560.09,181.793 553.992,184.695 548.379,188.399C543.656,191.586 542.386,197.984 545.539,202.731C548.691,207.477 555.086,208.793 559.855,205.676C582.05,190.926 611.816,195.414 628.675,216.051C645.538,236.692 644.003,266.754 625.124,285.563L625.125,285.56Z" style="fill:white;fill-rule:nonzero;"/>
    </g>
</svg>
